/* XPM */
static char *result[] = {
/* columns rows colors chars-per-pixel */
"32 32 210 2 ",
"   c #771C1F",
".  c #771F21",
"X  c #752728",
"o  c #7C3635",
"O  c #64463E",
"+  c #637C39",
"@  c #7E4C4A",
"#  c #861B20",
"$  c #941C22",
"%  c #A81E24",
"&  c #B41F28",
"*  c #8C2224",
"=  c #982629",
"-  c #972E30",
";  c #8A3D3D",
":  c #943938",
">  c #AC2A2D",
",  c #A62427",
"<  c #B62227",
"1  c #BC2227",
"2  c #B3252A",
"3  c #BC2529",
"4  c #B52A2C",
"5  c #B42F32",
"6  c #BE2C33",
"7  c #A43837",
"8  c #BC3636",
"9  c #C4252A",
"0  c #CB272B",
"q  c #C4292C",
"w  c #CB2B2D",
"e  c #D1292C",
"r  c #CA2E31",
"t  c #D72E31",
"y  c #C23335",
"u  c #CB3334",
"i  c #C1373A",
"p  c #CD3939",
"a  c #D33434",
"s  c #D43B3A",
"d  c #DB3C3B",
"f  c #D93533",
"g  c #E33E3F",
"h  c #E4333A",
"j  c #EC2B37",
"k  c #BC4D39",
"l  c #D1423B",
"z  c #9D3E40",
"x  c #BB3F4F",
"c  c #C13F41",
"v  c #DB3D41",
"b  c #E73A41",
"n  c #824B45",
"m  c #974C44",
"M  c #B75548",
"N  c #AD5E52",
"B  c #B55A58",
"V  c #B84242",
"C  c #85634D",
"Z  c #8F7D4B",
"A  c #8F655F",
"S  c #987050",
"D  c #AC714E",
"F  c #AE6659",
"G  c #B46D5E",
"H  c #A8785B",
"J  c #946963",
"K  c #A86D62",
"L  c #A76E61",
"P  c #B56E61",
"I  c #A77268",
"U  c #BF7D6C",
"Y  c #B87868",
"T  c #AA7A76",
"R  c #C64847",
"E  c #D34545",
"W  c #DC4444",
"Q  c #D44945",
"!  c #DF4E4C",
"~  c #C8574C",
"^  c #D9514E",
"/  c #C74556",
"(  c #C85959",
")  c #DE5352",
"_  c #DF5E5E",
"`  c #D45858",
"'  c #E34E4E",
"]  c #E74647",
"[  c #E3524F",
"{  c #E45352",
"}  c #EA5A5B",
"|  c #E5595A",
" . c #CD6B5E",
".. c #D6665C",
"X. c #E25C61",
"o. c #CA6764",
"O. c #C7696A",
"+. c #C57E6C",
"@. c #C77467",
"#. c #D9706D",
"$. c #DA7A77",
"%. c #E66864",
"&. c #ED716D",
"*. c #EB7E79",
"=. c #76913A",
"-. c #7B943B",
";. c #7C983A",
":. c #688338",
">. c #869B39",
",. c #8CA43C",
"<. c #8AA53A",
"1. c #91A23B",
"2. c #9AB53A",
"3. c #A2BB3E",
"4. c #B0B53E",
"5. c #ACC43B",
"6. c #9A924F",
"7. c #8F855D",
"8. c #B58055",
"9. c #B5AE40",
"0. c #A9BC42",
"q. c #AF8362",
"w. c #B18361",
"e. c #B88B69",
"r. c #AF996E",
"t. c #BF9569",
"y. c #AF8479",
"u. c #B28573",
"i. c #BB8B77",
"p. c #BC9975",
"a. c #C4BA5A",
"s. c #C9826E",
"d. c #C38674",
"f. c #CB8B75",
"g. c #CC8D7A",
"h. c #C58977",
"j. c #D38B74",
"k. c #D88773",
"l. c #C29B72",
"z. c #CE927E",
"x. c #C09377",
"c. c #D4947B",
"v. c #DA957C",
"b. c #DC997F",
"n. c #D39C7E",
"m. c #C8966A",
"M. c #E3837F",
"N. c #E29B7E",
"B. c #E2947A",
"V. c #CCAB79",
"C. c #D2B576",
"Z. c #D1B17D",
"A. c #CAA46E",
"S. c #ADC042",
"D. c #CED456",
"F. c #D4D854",
"G. c #C48F80",
"H. c #C38381",
"J. c #CD9686",
"K. c #C69486",
"L. c #D59682",
"P. c #DB9C82",
"I. c #D79689",
"U. c #DE9593",
"Y. c #DE8A89",
"T. c #E39E83",
"R. c #E99D89",
"E. c #E49C97",
"W. c #EB8986",
"Q. c #CFAC84",
"!. c #DCA185",
"~. c #DDA48B",
"^. c #DEA992",
"/. c #D9A59A",
"(. c #C7A89F",
"). c #E3A185",
"_. c #EBA484",
"`. c #E2A389",
"'. c #E6AA8D",
"]. c #EBAB8C",
"[. c #E8A986",
"{. c #F2AA88",
"}. c #E5AC91",
"|. c #EAAE91",
" X c #E0A690",
".X c #EEB395",
"XX c #F3BB9B",
"oX c #F6B895",
"OX c #D8B6AD",
"+X c #DDB9B1",
"@X c #CCA9A7",
"#X c #F8AAAA",
"$X c #EEBEA0",
"%X c #DDC48B",
"&X c #DCC382",
"*X c #E3CF91",
"=X c #E2CB85",
"-X c #CFC0BC",
";X c #D8C5BF",
":X c #E6CBAA",
">X c #F6C2A2",
",X c #FAC5A1",
"<X c #EAD8A2",
"1X c #FBD0AE",
"2X c #E0C0B5",
"3X c #FDD6B4",
"4X c #F6EDBC",
"5X c #DCCAC6",
"6X c #FAF2C9",
"7X c None",
/* pixels */
"7X7X7X7X7X7X7X7X7X7X7X7X7X7X7X7X7X7X7X7X7X7X7X7X7X7X7X7X7X7X7X7X",
"7X7X7X7X7X7X7X7X7X7X7X7XC.7X7X7X7X7X7X7X7X7X7X7X7X7X7X7X7X7X7X7X",
"7X7X7X7X7X7X7X7X7XQ.%X<X%XA.p.7X7X7X7X7X7X7X7X7X7X7X7X7X7X7X7X7X",
"7X7X7X7X7X7X7X7XQ.*X<X6X4X&Xl.Q.7X7X7X7X7X7X7X7X7X7X7X7X7X7X7X7X",
"7X7X7X7X7X7X7X%X=XC.C.:X<X[.q.Q.7X7X7X7X7X7XJ.g.^.7X7X7X7X7X7X7X",
"7X7X7X7X7X7X7XC.A.w.K.T h.u.@ t.7X7X~.`.L.f.7X7Xh.K.7X7X7X7X7X7X",
"7X7X7X7X7X7Xm.t.w.i.U.I.y.O C m.!.R.P.g.7X7X7X7X7X7X7X7X7X7X7X7X",
"7X7X7X7X7X7Xw.q.H w.i.H.u.u.z.n.c.e.7X7X7X7X7X7X7X7X7X7X7X7X7X7X",
"7X7X7X7X7X7Xp.l.e.c.'.[.j.d.Y e.7X7X7X7X7X7X7X7X7X/ 7X7X7X7X7X7X",
"7X7X7X7X7X7X7Xi.b.{.b.s.c.g.f.~.7X7X7X7X7X7X7X7X7X7X7X7X7X7X7X7X",
"7X7X7X7X7X7X7Xp.d.B.B.j.c.g.T.v.J.7X7X7X7X7X7X7X7X7X7X7X7X7X7X7X",
"7X7X7X7X7X7X7X7Xe.s.v.N.+.K f.h.7X7X7X7X7X7X7X7X/ 7X7X7X7X7X7X7X",
"7X7X7X7X7X7X7X7X7X7Xg.].XXh.J T 7X7X7XI.7X7X7X7Xx 7X7X7X7X7X7X7X",
"7X7X7X7X7XF.7X7X7X7X/.c._.T.Y K Y +.j.[. X7X7X7X7X7X7X7X7X7X7X7X",
"7X7X7X7XD.F.3.=.7X7XL.T.T.G.J K P P +.|.>X}.7X7X7X7X7X7X7X7X7X7X",
"7X7X7X7X7XS.;.+ H B.R.P.g.y.i.h.c.P.h.G..X>X^.7X7X7X7X2.7X7X7X7X",
"7X7X7X7X=.-.:.7.N.oX{.T.).|.XXXXoXc.K A i.}.XX`.r.-.=.<.2.7X7X7X",
"7X7X,.3.0.<.-.p._.1X3X,X,XXX|.c.P K P.d.@ B L.{.L.6.>.;.>.3.7X7X",
"7XS.D.F.9.2.<.q.j.T.].].P.s.F @ n !.XXY X $ R $.).s.k Z ,.5.7X7X",
"7X7X7X7X~ a.4.l M G G N m ; X . G ,Xb.: - > ^ *.E.b.@.R H 1.7X7X",
"7X7X7Xq %.R.m.f b W.E.#.R i q i !.].m # V ( { %.Y.R.T. ...6.<.7X",
"7X7X, 6 Q ..&.' %.#X#X*.b j b ..'.F = , 5 o.v v o.P.[.c.R D 0.7X",
"7X7X% 1 0 t { &.*.W.X.b h Q ` T.@.~ R 9 2 O.6 h ` /./.^.@.M 7X7X",
"7X7X1 1 w e f ] ] ] b X.I.`.|.+.l ^ ) 6 5 B $ b _ *.E.+XOX7X7X7X",
"7X7Xa e a l d d d ^ ` O.OX}.s.7 0 0 9 < 5 z * { %.#.E.5X5X7X7X7X",
"7X7X7XW f d l [ } _ Y.+X2XJ.; 8 a r 1 < 8 X $ v ! E V ( 7X7X7X7X",
"7X7X7X7X' f d g Q R @X-X(.I - E l p q q 7 . $ w r u u 7X7X7X7X7X",
"7X7X7X7X7X{ f w 3 2 - ; o X = 8 a r 9 y > > r s W E 7X7X7X7X7X7X",
"7X7X7X7X7X7X_ s e 0 3 % $ , 2 2 0 w u p v ] ' { 7X7X7X7X7X7X7X7X",
"7X7X7X7X7X7X7X7Xf r w 0 0 q 0 3 9 q 6 W } | 7X7X7X7X7X7X7X7X7X7X",
"7X7X7X7X7X7X7X7X7X7Xq 4 3 < 1 1 3 3 4 7X7X7X7X7X7X7X7X7X7X7X7X7X",
"7X7X7X7X7X7X7X7X7X7X7X7X7X3 < 7X7X7X7X7X7X7X7X7X7X7X7X7X7X7X7X7X"
};
