/* XPM */
static char *result[] = {
/* columns rows colors chars-per-pixel */
"32 32 8 1 ",
"  c black",
". c #010101",
"X c #020202",
"o c #040404",
"O c #070707",
"+ c gray3",
"@ c gray4",
"# c None",
/* pixels */
"####+oooooooooooooooooooooo+####",
"##@X                        X@##",
"#@.                          .@#",
"#X                            X#",
"+                              +",
"o                              o",
"o                              o",
"o                              o",
"o                              o",
"o                              o",
"o                              o",
"o                              o",
"o                              o",
"o                              o",
"o                              o",
"o                              o",
"o                              o",
"o                              o",
"o                              o",
"o                              o",
"o                              o",
"o                              o",
"o                              o",
"o                              o",
"o                              o",
"o                              o",
"o                              o",
"+                              +",
"#X                            X#",
"#@.                          .@#",
"##@X                        X@##",
"####Ooooooooooooooooooooooo+####"
};
