/* XPM */
static char *result[] = {
/* columns rows colors chars-per-pixel */
"32 32 142 2 ",
"   c #008124",
".  c #008225",
"X  c #008226",
"o  c #008326",
"O  c #008327",
"+  c #008328",
"@  c #008428",
"#  c #008429",
"$  c #01842A",
"%  c #01852A",
"&  c #05872D",
"*  c #05872E",
"=  c #06872E",
"-  c #07872F",
";  c #07882F",
":  c #088830",
">  c #0A8932",
",  c #0B8932",
"<  c #0D8A34",
"1  c #0E8B35",
"2  c #118C37",
"3  c #158E3B",
"4  c #168E3B",
"5  c #178F3D",
"6  c #188F3D",
"7  c #19903E",
"8  c #1A913F",
"9  c #1B913F",
"0  c #1B9140",
"q  c #1C9140",
"w  c #1C9241",
"e  c #1D9241",
"r  c #209444",
"t  c #219445",
"y  c #259648",
"u  c #269649",
"i  c #28974A",
"p  c #2A984C",
"a  c #2B994D",
"s  c #2C994D",
"d  c #2C994E",
"f  c #2D9A4F",
"g  c #309B51",
"h  c #329C53",
"j  c #339D54",
"k  c #359D55",
"l  c #369E56",
"z  c #379F57",
"x  c #389F58",
"c  c #39A059",
"v  c #3AA059",
"b  c #3AA05A",
"n  c #3BA05A",
"m  c #3BA15B",
"M  c #3CA15B",
"N  c #3DA15C",
"B  c #3EA25D",
"V  c #3FA25E",
"C  c #41A35F",
"Z  c #42A460",
"A  c #45A563",
"S  c #46A664",
"D  c #47A665",
"F  c #48A765",
"G  c #4AA767",
"H  c #4AA867",
"J  c #4DA96A",
"K  c #4EA96A",
"L  c #4EAA6A",
"P  c #50AB6C",
"I  c #53AC6F",
"U  c #54AC6F",
"Y  c #55AD70",
"T  c #56AD71",
"R  c #57AE72",
"E  c #59AF73",
"W  c #59AF74",
"Q  c #5AAF74",
"!  c #5BB075",
"~  c #5BB076",
"^  c #5FB278",
"/  c #5FB279",
"(  c #61B37A",
")  c #63B47C",
"_  c #65B57D",
"`  c #78BE8D",
"'  c #78BE8E",
"]  c #7ABF90",
"[  c #7DC092",
"{  c #7FC193",
"}  c #80C194",
"|  c #82C396",
" . c #86C499",
".. c #87C59A",
"X. c #8AC69D",
"o. c #8BC79E",
"O. c #8CC79E",
"+. c #8DC89F",
"@. c #93CBA4",
"#. c #94CBA5",
"$. c #95CCA6",
"%. c #9ACEAA",
"&. c #9BCFAB",
"*. c #9DCFAC",
"=. c #9DD0AD",
"-. c #9ED0AD",
";. c #A7D5B5",
":. c #A8D5B6",
">. c #A9D5B7",
",. c #AED8BB",
"<. c #B1D9BE",
"1. c #B2DABE",
"2. c #B4DBC0",
"3. c #BCDFC7",
"4. c #BFE0C9",
"5. c #C3E2CC",
"6. c #C5E3CE",
"7. c #C7E4D0",
"8. c #CAE5D2",
"9. c #CBE6D3",
"0. c #CEE7D6",
"q. c #D0E8D7",
"w. c #D3E9DA",
"e. c #D7ECDE",
"r. c #D9ECDF",
"t. c #DAEDE0",
"y. c #DBEEE1",
"u. c #E0F0E5",
"i. c #E3F1E7",
"p. c #E4F2E8",
"a. c #E6F3EA",
"s. c #E9F4EC",
"d. c #ECF6EF",
"f. c #F0F8F3",
"g. c #F5FAF6",
"h. c #F7FBF8",
"j. c #F8FCF9",
"k. c #F9FCFA",
"l. c #FAFCFB",
"z. c #FDFEFE",
"x. c white",
"c. c None",
/* pixels */
"c.c.c.c.c.c.c.c.c.c.c.c.c.c.c.c.c.c.c.c.c.c.c.c.c.c.c.c.c.c.c.c.",
"c.c.c.c.c.c.c.c.c.c.c.c.c.c.c.c.c.c.c.c.c.c.c.c.c.c.c.c.c.c.c.c.",
"c.c.c.c.c.c.c.c.c.c.c.c.c.c.c.c.c.c.c.c.c.c.c.c.c.c.c.c.c.c.c.c.",
"c.c.c.c.c.c.c.c.c.c.c.c.c.c.c.c.c.c.c.c.c.c.c.c.c.c.c.c.c.c.c.c.",
"c.c.c.c.c.c.c.c.c.c.c.c.c.c.c.c.c.c.c.c.c.c.c.c.c.c.c.c.c.c.c.c.",
"c.c.c.c.c.c.c.c.c.c.c.c.c.c.c.c.c.c.c.c.c.c.c.c.c.c.c.c.c.c.c.c.",
"c.c.c.c.c.c.c.c.c.c.c.c.c.c.c.c.c.c.c.c.c.c.c.c.c.c.c.c.c.c.c.c.",
"c.c.c.c.c.c.c.c.c.c.c.c.c.c.c.c.c.c.c.c.c.c.c.c.c.c.c.c.c.c.c.c.",
"c.c.c.c.c.c.c.c.c.c.c.c.c.c.c.c.c.c.c.c.c.c.c.c.c.c.c.c.c.c.c.c.",
"c.c.c.c.c.c.c.c.c.c.c.c.c.c.c.c.c.c.c.c.c.c.c.c.c.c.c.c.c.c.c.c.",
"c.c.c.# # # # # # # # # # # # # # # # # = 6 7 7 7 8 6 & # c.c.c.",
"c.c.c.# # # # # # # # # # # # # # # # o h q.t.t.e.6.9.g X c.c.c.",
"c.c.c.# # @ + + + # # # # # @ # O + # X M h.x.j.7.z 2.m . c.c.c.",
"c.c.c.# O h O. ...c . + + o D i u 9 O X M s.} E V C 8.v . c.c.c.",
"c.c.c.# . ~ ,.n M 0 a 4 q y A k =.{ ; . B <.| @.* s w.c . c.c.c.",
"c.c.c.# . E 7.[ ' w U *.&.N | ^ ;.+., . m d.i.n x P F 7 O c.c.c.",
"c.c.c.# . Q >.k j , > 4.:.% O.K { T   X b k.-.# #.p.1.d X c.c.c.",
"c.c.c.# . W 3.) _ f ! @.=.J X.L ` ..: $ H u.] p R g.l.B . c.c.c.",
"c.c.c.# + r / ( ( g V 5 t M l e r Y 1 - G Q S $.R %.j.N . c.c.c.",
"c.c.c.# # + . . . O O + + O O + + X @ X Z a.f.z.5.F r.V . c.c.c.",
"c.c.c.# # # # # # # # # # # # # # # # O U e.y.y.0.I o.t O c.c.c.",
"c.c.c.# # # # # # # # # # # # # # # # # 2 7 7 7 3 - < # # c.c.c.",
"c.c.c.c.c.c.c.c.c.c.c.c.c.c.c.c.c.c.c.c.c.c.c.c.c.c.c.c.c.c.c.c.",
"c.c.c.c.c.c.c.c.c.c.c.c.c.c.c.c.c.c.c.c.c.c.c.c.c.c.c.c.c.c.c.c.",
"c.c.c.c.c.c.c.c.c.c.c.c.c.c.c.c.c.c.c.c.c.c.c.c.c.c.c.c.c.c.c.c.",
"c.c.c.c.c.c.c.c.c.c.c.c.c.c.c.c.c.c.c.c.c.c.c.c.c.c.c.c.c.c.c.c.",
"c.c.c.c.c.c.c.c.c.c.c.c.c.c.c.c.c.c.c.c.c.c.c.c.c.c.c.c.c.c.c.c.",
"c.c.c.c.c.c.c.c.c.c.c.c.c.c.c.c.c.c.c.c.c.c.c.c.c.c.c.c.c.c.c.c.",
"c.c.c.c.c.c.c.c.c.c.c.c.c.c.c.c.c.c.c.c.c.c.c.c.c.c.c.c.c.c.c.c.",
"c.c.c.c.c.c.c.c.c.c.c.c.c.c.c.c.c.c.c.c.c.c.c.c.c.c.c.c.c.c.c.c.",
"c.c.c.c.c.c.c.c.c.c.c.c.c.c.c.c.c.c.c.c.c.c.c.c.c.c.c.c.c.c.c.c.",
"c.c.c.c.c.c.c.c.c.c.c.c.c.c.c.c.c.c.c.c.c.c.c.c.c.c.c.c.c.c.c.c."
};
