/* XPM */
static char *result[] = {
/* columns rows colors chars-per-pixel */
"32 32 102 2 ",
"   c #9C380B",
".  c #AF3E0E",
"X  c #A44A09",
"o  c #AF580A",
"O  c #AB6613",
"+  c #B76C15",
"@  c #CF5D19",
"#  c #DB670D",
"$  c #CC730F",
"%  c #D2730B",
"&  c #D87F0D",
"*  c #C16F10",
"=  c #DA6B15",
"-  c #DF6C1D",
";  c #E66D06",
":  c #E86809",
">  c #E37B0E",
",  c #EC7F0D",
"<  c #E37415",
"1  c #E97411",
"2  c #DB6A22",
"3  c #DF753A",
"4  c #E06D29",
"5  c #E07F27",
"6  c #E1782B",
"7  c #AE6C52",
"8  c #876869",
"9  c #917576",
"0  c #DD7B45",
"q  c #D59111",
"w  c #DB9719",
"e  c #EE810E",
"r  c #F38D0A",
"t  c #E9910D",
"y  c #F59412",
"u  c #F19E12",
"i  c #E3A60A",
"p  c #F8A50C",
"a  c #F3AC0F",
"s  c #F0BA12",
"d  c #C58621",
"f  c #CC9C20",
"g  c #D29E29",
"h  c #F08D35",
"j  c #E9BC28",
"k  c #F8C106",
"l  c #FECC1C",
"z  c #FFEE00",
"x  c #FFF604",
"c  c #FFE011",
"v  c #FFE22A",
"b  c #AB837B",
"n  c #CB8B4D",
"m  c #DF824A",
"M  c #CF8B53",
"N  c #E18656",
"B  c #E59452",
"V  c #CE9969",
"C  c #D8A675",
"Z  c #9B9590",
"A  c #BA948E",
"S  c #B6A5A3",
"D  c #AFAFB0",
"F  c #B4B4B5",
"G  c #B7B7B8",
"H  c #BCBCBD",
"J  c #C1A28E",
"K  c #D5BA88",
"L  c #CCB198",
"P  c #D2B8AC",
"I  c #D8BAAC",
"U  c #CFC2B3",
"Y  c #D6C4BA",
"T  c #E5CABC",
"R  c #BEBEC0",
"E  c #BBC2C4",
"W  c #C2C3C4",
"Q  c #CAC4C6",
"!  c #C6C7C8",
"~  c #C7C8C9",
"^  c #CBCBCD",
"/  c #D4CCCE",
"(  c #DDD2CD",
")  c #CECFD0",
"_  c #CFD0D1",
"`  c #D3D3D4",
"'  c #D6D7D8",
"]  c #D7D8D9",
"[  c #DADBDC",
"{  c #DDDFE0",
"}  c #DFE0E2",
"|  c #E2E3E4",
" . c #E5E6E9",
".. c #E6E8EA",
"X. c #E9EBED",
"o. c #EDEEF1",
"O. c #EFF1F4",
"+. c #F1F3F6",
"@. c #F3F6F9",
"#. c #F6F9FC",
"$. c #FAFCFE",
"%. c None",
/* pixels */
"%.%.%.%.%.%.%.%.%.%.%.%.%.%.%.%.%.%.%.%.%.%.%.%.%.%.%.%.%.%.%.%.",
"%.%.%.%.%.%.%.%.%.%.%.%.%.%.W W W ^ %.%.%.%.%.%.%.%.%.%.%.%.%.%.",
"%.%.%.%.%.%.%.%.%.%.%.%.%.! W R H W ` %.%.%.%.%.%.%.%.%.%.%.%.%.",
"%.%.%.%.%.%.%.%.%.%.%.%.^ E W E E ~ ^ %.%.%.%.%.%.%.%.%.%.%.%.%.",
"%.%.%.%.%.%.%.%.%.%.%.%.` G U W Z ^ ` %.%.%.%.%.%.%.%.%.%.%.%.%.",
"%.%.%.%.%.%.%.%.%.%.%.%.] ' ' [ ` [ [ %.%.%.%.%.%.%.%.%.%.%.%.%.",
"%.%.%.%.%.%.%.%.%.%.%.%.{ } / 9 ' | } | { %.%.%.%.%.%.%.%.%.%.%.",
"%.%.%.%.%.%.%.%.%.%.%. . .X.[ 8 Q .. .| | ] ^ %.%.%.%.%.%.%.%.%.",
"%.%.%.%.%.%.%.%.%.%.%...X.o.X...o.o.o...} { ' ' ^ %.%.%.%.%.%.%.",
"%.%.%.%.%.%.%.%.%.%.X.o.o.+.O.o.O.+.O...} X.} { ^ ~ ! %.%.%.%.%.",
"%.%.%.%.%.%.%. ...X.o.+.+.+.@.@.@.@.+.o.O.o...^ R S b L %.%.%.%.",
"%.%.%.%.' [ |  .X.o.+.@.#.+.@.$.#.#.@.@.O.O.' E J 7 A V M %.%.%.",
"%.%.%.) ' [ | ..o.+.@.@.$.$.#.$.$.$.#.#.o.o.^ P n Y ..%.  %.%.%.",
"%.%.) ) ) ! W ` X.@.+.@.$.$.$.#.O.$.$.@.o...) C 5 B h = . %.%.%.",
"%.%.| ^ ' [ ` ! ) +.@.+.$.$.$.+...$.$.o.X.| K s r y p k , 4 %.%.",
"%.%.%.` %.%...[ ^ o.$.@.$.$.$...X.$.$...o.( j z i w c x a : N %.",
"%.%.%.%.%.%.%...`  .$.#.$.$.#. .X.$.$.[ O.I = t q f v l y 1 3 %.",
"%.%.%.%.%.%.%.%.{ ' @.O.#.$.$.} X.$.| | O.P @ X + d g O $ < 0 %.",
"%.%.%.%.%.%.%.%.%.%.+.o.O.$.#.{ o.O.| +.' ` m ; % o * q e - %.%.",
"%.%.%.%.%.%.%.%.%.%.O.o...$.+.{ O. .O.] ^ } T 2 # > > < 6 %.%.%.",
"%.%.%.%.%.%.%.%.%.X.+.X.} #. .{ @.X.O.! _ } %.%.%.%.%.%.%.%.%.%.",
"%.%.%.%.%.%.%.%.%...X. .{ O.{ X.+.O...^ { %.%.%.%.%.%.%.%.%.%.%.",
"%.%.%.%.%.%.%.%.%.%...[ { } ..{ ..X.} } %.%.%.%.%.%.%.%.%.%.%.%.",
"%.%.%.%.%.%.%.%.%.%.| ' } ..} ~ |  .}  .%.%.%.%.%.%.%.%.%.%.%.%.",
"%.%.%.%.%.%.%.%.%.%.] ` } } ^ ^ } [ [ | %.%.%.%.%.%.%.%.%.%.%.%.",
"%.%.%.%.%.%.%.%.%.[ ^ ` ' ! E ' ` ` [ %.%.%.%.%.%.%.%.%.%.%.%.%.",
"%.%.%.%.%.%.%.%.^ ! W W H P E ^ ^ ] %.%.%.%.%.%.%.%.%.%.%.%.%.%.",
"%.%.%.%.%.%.%.H H H H R E W ~ ~ [ %.%.%.%.%.%.%.%.%.%.%.%.%.%.%.",
"%.%.%.%.%.%.%.D G ^ ^ ` ` ` ` } %.%.%.%.%.%.%.%.%.%.%.%.%.%.%.%.",
"%.%.%.%.%.%.%.G F G %.%.%.%.%.%.%.%.%.%.%.%.%.%.%.%.%.%.%.%.%.%.",
"%.%.%.%.%.%.%.%.%.%.%.%.%.%.%.%.%.%.%.%.%.%.%.%.%.%.%.%.%.%.%.%.",
"%.%.%.%.%.%.%.%.%.%.%.%.%.%.%.%.%.%.%.%.%.%.%.%.%.%.%.%.%.%.%.%."
};
