/* XPM */
static char *result[] = {
/* columns rows colors chars-per-pixel */
"32 32 213 2 ",
"   c #270000",
".  c #2B0100",
"X  c #340400",
"o  c #3D0600",
"O  c #380C00",
"+  c #440700",
"@  c #430C00",
"#  c #4F0B00",
"$  c #540C00",
"%  c #5A0C00",
"&  c #4B1202",
"*  c #541200",
"=  c #5A1101",
"-  c #571D03",
";  c #641200",
":  c #6D1B03",
">  c #6B1601",
",  c #721601",
"<  c #792607",
"1  c #79340C",
"2  c #6C2400",
"3  c #735A0A",
"4  c #634B08",
"5  c #78640A",
"6  c #7D6E10",
"7  c #861A00",
"8  c #921D00",
"9  c #991F00",
"0  c #A01F00",
"q  c #842704",
"w  c #8B2C07",
"e  c #972E02",
"r  c #863408",
"t  c #94350C",
"y  c #993701",
"u  c #8F3F11",
"i  c #AB2400",
"p  c #A62200",
"a  c #B42803",
"s  c #B62603",
"d  c #A73901",
"f  c #B43907",
"g  c #BF2F12",
"h  c #C22A02",
"j  c #CA2B04",
"k  c #C32C0C",
"l  c #D52A00",
"z  c #CB3204",
"x  c #CB340A",
"c  c #DB3401",
"v  c #DE3B02",
"b  c #D63907",
"n  c #C22E13",
"m  c #C83416",
"M  c #D43816",
"N  c #E13D00",
"B  c #C73622",
"V  c #D43C23",
"C  c #935A08",
"Z  c #974814",
"A  c #8C431A",
"S  c #A74905",
"D  c #BF5203",
"F  c #A44615",
"G  c #AB5419",
"H  c #A65919",
"J  c #BC5213",
"K  c #88660E",
"L  c #866F14",
"P  c #947918",
"I  c #8F7013",
"U  c #BA6918",
"Y  c #8A4828",
"T  c #954D21",
"R  c #AB5F21",
"E  c #B76A27",
"W  c #C74702",
"Q  c #DD4405",
"!  c #D7490B",
"~  c #CD5705",
"^  c #D0500D",
"/  c #D34113",
"(  c #DA4919",
")  c #C75C15",
"_  c #DB5B1B",
"`  c #DE5817",
"'  c #E44400",
"]  c #E54A01",
"[  c #E84F00",
"{  c #E45201",
"}  c #EA5402",
"|  c #EB5B03",
" . c #E55807",
".. c #E34E15",
"X. c #D7651A",
"o. c #DE701D",
"O. c #DB6806",
"+. c #EE6404",
"@. c #EB6809",
"#. c #F16302",
"$. c #F36C04",
"%. c #F16E09",
"&. c #EE7909",
"*. c #F47305",
"=. c #F67907",
"-. c #F47B0B",
";. c #F97A06",
":. c #ED6B17",
">. c #EE7614",
",. c #F37B16",
"<. c #F06914",
"1. c #DA4626",
"2. c #D6483A",
"3. c #DE5739",
"4. c #E55A2A",
"5. c #E25A35",
"6. c #DC6826",
"7. c #CA7929",
"8. c #D07220",
"9. c #D46B33",
"0. c #D37038",
"q. c #E66329",
"w. c #E57928",
"e. c #F37822",
"r. c #E96734",
"t. c #EA7E36",
"y. c #D74946",
"u. c #E25F42",
"i. c #D57143",
"p. c #E77844",
"a. c #E36551",
"s. c #EB7A5A",
"d. c #E86E49",
"f. c #EA7C64",
"g. c #998918",
"h. c #A7971E",
"j. c #B79133",
"k. c #B7A921",
"l. c #D8951F",
"z. c #F7840C",
"x. c #F8850B",
"c. c #F7880D",
"v. c #F98B0D",
"b. c #F9920F",
"n. c #F38515",
"m. c #F58A16",
"M. c #F99413",
"N. c #FB9C14",
"B. c #FB9D1C",
"V. c #F79A1D",
"C. c #FDA91C",
"Z. c #FCA219",
"A. c #FDB21F",
"S. c #D68933",
"D. c #E98C27",
"F. c #F4882D",
"G. c #EE982D",
"H. c #F79624",
"J. c #F59829",
"K. c #ED8B3B",
"L. c #F3863D",
"P. c #F48D3A",
"I. c #E99A39",
"U. c #F59737",
"Y. c #FBAA23",
"T. c #FCAF2C",
"R. c #F8A22E",
"E. c #FDBB23",
"W. c #FCB22C",
"Q. c #FDBA2B",
"!. c #FCB521",
"~. c #F9AB35",
"^. c #F5AC3B",
"/. c #F9AD3A",
"(. c #F6A538",
"). c #FDB636",
"_. c #E6A93B",
"`. c #D3C527",
"'. c #D6C828",
"]. c #FDC429",
"[. c #FDC73B",
"{. c #BB8952",
"}. c #C7854D",
"|. c #CD9848",
" X c #EE8945",
".X c #F78943",
"XX c #EE9942",
"oX c #F69244",
"OX c #F4964C",
"+X c #F2915A",
"@X c #D5B558",
"#X c #E7A74D",
"$X c #F9B746",
"%X c #EAB34D",
"&X c #EB836F",
"*X c #ECBD6B",
"=X c #FCCB4A",
"-X c #FED041",
";X c #FBC354",
":X c #FAC75B",
">X c #FED057",
",X c #FACD68",
"<X c #FDD866",
"1X c #F3D17E",
"2X c #FDE17E",
"3X c #EB8B83",
"4X c #EECF89",
"5X c #FCDD84",
"6X c #F9DF93",
"7X c #FCE999",
"8X c #FBEAA2",
"9X c #FBF1B1",
"0X c None",
/* pixels */
"0X0X0X0X0X0X0X0X0X0X0X0X0X0X0X0X0X0X0Xh.3 0X0X0X0X0X0X0X0X0X0X0X",
"0X0X0X0X0X0X0X0X0X0X0X0X0X0X0X0X0X`.'.k.4 3 0X0X0X0X0X0X0X0X0X0X",
"0X0X0X0X0X0X0X0X0X0X0X0X0X0X0X0X`.`.g.5 L 5 0X0X0X0X0X0X0X0X0X0X",
"0X0X0X0X0X0X0X0X0X0X0X0X0X0X0X0X`.g.5 0X0X0X0X0X0X0X0X0X0X0X0X0X",
"0X0X0X0X0X0X0X0X0X0X0X0X0X0X0X0Xk.5 0X0X0X0X0X0X0X0X0X0X0X0X0X0X",
"0X0X0X0X0X0X0X0X0X0X0X0X0X0X0XS.h.6 |.0X0X0X0X0X0X0X0X0X0X0X0X0X",
"0X0X0X0X0X0X0X0X0X0XL.L.oXK.X.U g.L U w.L.L..X.X0X0X0X0X0X0X0X0X",
"0X0X0X0X0X0X0Xe.L.oXL.D.~ S K I g.L K C S 6.oXoXF.,.0X0X0X0X0X0X",
"0X0X0X0X0X_ | +.,.oXOX X) P g.g.P L P j.j.S.P.U.,.%.<.s.0X0X0X0X",
"0X0X0X0X6. .| %.,.n.D.%X*X%Xl.S.@X@X#X/.$X~.m.;.;.#.| :.&X0X0X0X",
"0X0X0X0.{ } @.-.n.&.B.T.W.Y.N.Y.W.Q.T.N.B.Y.M.x.x.x.#.| r.3X0X0X",
"0X0X}.` { +.,.J.m.V.Z.Y.W.C.C.!.E.E.E.C.C.!.Y.Y.-.M.;.} | s.0X0X",
"0X0X9.]  .n.^.^.H.~.Y.,X=X!.C.Q.<X].].Q.W.[.).).R.-.v.#.[ q.&X0X",
"0X0X_ ] <.J.$XH./.;X$X7X>X).W.=X7X-X[.<X/.,X,X;X).m.x.$.[ ..&X0X",
"0Xi.` ' :.G.$Xn.D.E T Y {./.;X8X9X<X5X1XR A T 7.U.H.;.$.} ] d.0X",
"0X0.Q ' @.J.U.^ < = % % = F :X7X7X7X4XY % % % = y X.#.#.[ ' r.0X",
"0X9.N N  .>.o.) G G t w 2 2 #X5X5X5X{.= < t F G G ^  .#.] ' 4.0X",
"0X9.b N } @.>.n.Y.W./.$XI.7.I.;X:X:XS.S.G.(.$X~.J.-.+.| ] N 4.0X",
"0X9.v c ' ] +.%.M.M.N.C.Y.B.Z.Y.W.W.W.C.N.N.V.b.v.#.] { ] c 5.0X",
"0X0Xb l N W W #.-.c.v.b.N.v.b.M.N.Z.N.M.x.x.c.*.*.W d ] ' c 5.0X",
"0X0X/ l N b p d +.*.-.c.v.;.z.z.b.v.c.x.;.;.%.~ r > f ] c l u.0X",
"0X0XM j l N / w - y D O.&.%.$.;.=.=.&.@.~ d 2 O & f Q N b M 0X0X",
"0X0X0Xk M N ..X.1 O @ * d $.@.W y e q 2 & @ O - J ( ( 1.V j 0X0X",
"0X0X0Xe n 2.3.r.8.Z @ @ < ^ _ w > Z E H * @ 1 8.q.1.y.y.n 0X0X0X",
"0X0X0X0X8 n y.2.` F.U < * ; : ; : i.+Xp.r H K.d.2.m y.B 0X0X0X0X",
"0X0X0X0X0X, a m x (  XXX7.H Z u Z u.a.r.6. Xa.2.g k a % 0X0X0X0X",
"0X0X0X0X0X. * e a s x 3.p. XXXXXK.4.( M / 1.m s i 8 + 0X0X0X0X0X",
"0X0X0X0X0X0X. X > 7 p s z z x W b z z h k i 7 , $ . 0X0X0X0X0X0X",
"0X0X0X0X0X0X0X    X o ; 8 p i p i p 7 , , # .     0X0X0X0X0X0X0X",
"0X0X0X0X0X0X0X0X0X0X    X o o o O X . .     0X0X0X0X0X0X0X0X0X0X",
"0X0X0X0X0X0X0X0X0X0X0X0X0X0X0X0X0X0X0X0X0X0X0X0X0X0X0X0X0X0X0X0X",
"0X0X0X0X0X0X0X0X0X0X0X0X0X0X0X0X0X0X0X0X0X0X0X0X0X0X0X0X0X0X0X0X"
};
